<svg width="24" height="24" viewBox="0 0 24 24" fill="none" xmlns="http://www.w3.org/2000/svg">
<path d="M12.4736 5.20761L12.4738 5.20774L15.7666 6.95478C16.0503 7.10531 16.3914 7.10013 16.6704 6.94106L17.1012 6.69543C17.332 6.56385 17.3273 6.22956 17.0929 6.10448L13.1549 4.00293C13.1548 4.00291 13.1548 4.0029 13.1548 4.00288C12.4947 3.64636 11.6947 3.64019 11.0289 3.98647C11.0289 3.98648 11.0289 3.98649 11.0289 3.9865L6.95176 6.08915C6.70618 6.2158 6.70854 6.56777 6.9558 6.69112L7.53391 6.97952C7.80602 7.11527 8.12707 7.1106 8.39512 6.967L11.6906 5.20156C11.6906 5.20153 11.6907 5.20149 11.6907 5.20146C11.9359 5.07402 12.2306 5.07633 12.4736 5.20761ZM13.1705 20.0332L13.1712 20.0328L16.591 18.0813C16.7898 17.9678 16.9125 17.7565 16.9125 17.5276V17.0204C16.9125 16.7651 16.6401 16.6023 16.4152 16.7231L12.4257 18.8674C12.2187 18.9787 11.9701 18.9807 11.7612 18.8728L7.57997 16.7115C7.35533 16.5954 7.0875 16.7585 7.0875 17.0113V17.5195C7.0875 17.753 7.21514 17.9678 7.42023 18.0794L11.0097 20.0331L11.0097 20.0332C11.6818 20.397 12.4984 20.397 13.1705 20.0332Z" fill="#E5E5E5" stroke="#E5E5E5" stroke-width="0.075" stroke-linecap="round"/>
<path fill-rule="evenodd" clip-rule="evenodd" d="M6.96733 11.3465C6.55664 11.1221 6.03847 11.4233 6.03847 11.8913C6.03847 12.8947 6.03847 13.898 6.03847 14.9014C6.03847 15.0143 5.91842 15.0867 5.81853 15.0341L4.66013 14.4236C4.56165 14.3717 4.50001 14.2695 4.50001 14.1582C4.50001 12.3295 4.50001 10.5009 4.5 8.67227C4.5 8.2142 4.9926 7.92508 5.39254 8.14841L11.6343 11.6339C11.8616 11.7608 12.1384 11.7608 12.3657 11.6339L18.6075 8.1484C19.0074 7.92507 19.5 8.21418 19.5 8.67225C19.5 10.5009 19.5 12.3295 19.5 14.1582C19.5 14.2695 19.4384 14.3717 19.3399 14.4236L18.1815 15.0341C18.0816 15.0867 17.9615 15.0143 17.9615 14.9014C17.9615 13.8821 17.9615 12.8628 17.9615 11.8435C17.9615 11.3905 17.4787 11.1009 17.079 11.3142L12.3501 13.8381C12.1311 13.955 11.8694 13.9565 11.6496 13.8409C10.7562 13.3709 8.36504 12.1104 6.96733 11.3465Z" fill="#E5E5E5" stroke="#E5E5E5" stroke-width="0.6" stroke-linecap="round"/>
</svg>