
<svg width="24" height="24" viewBox="0 0 24 24" fill="none" xmlns="http://www.w3.org/2000/svg">
<path d="M8.25 5.25L15.75 5.25" stroke="#292525" stroke-width="2" stroke-linecap="round"/>
<path d="M9.49593 11.2913L10.4344 11.6367L10.4959 11.4695V11.2913H9.49593ZM6.75 18.75L5.81157 18.4045C5.69863 18.7113 5.74278 19.0539 5.92979 19.3221C6.11681 19.5902 6.42308 19.75 6.75 19.75V18.75ZM17.25 18.75V19.75C17.5769 19.75 17.8832 19.5902 18.0702 19.3221C18.2572 19.0539 18.3014 18.7113 18.1884 18.4045L17.25 18.75ZM14.5041 11.2913H13.5041V11.4695L13.5656 11.6367L14.5041 11.2913ZM8.49593 6V11.2913H10.4959V6H8.49593ZM8.55751 10.9458L5.81157 18.4045L7.68843 19.0955L10.4344 11.6367L8.55751 10.9458ZM6.75 19.75H17.25V17.75H6.75V19.75ZM18.1884 18.4045L15.4425 10.9458L13.5656 11.6367L16.3116 19.0955L18.1884 18.4045ZM15.5041 11.2913V6H13.5041V11.2913H15.5041Z" fill="#292525"/>
<path d="M15 14.25H9L7.5 18.375H16.5L15 14.25Z" fill="#292525"/>
</svg>
