
<svg width="24" height="24" viewBox="0 0 24 24" fill="none" xmlns="http://www.w3.org/2000/svg">
<mask id="path-1-inside-1" fill="white">
<rect x="4.5" y="9" width="16.5" height="10.5" rx="1"/>
</mask>
<rect x="4.5" y="9" width="16.5" height="10.5" rx="1" stroke="#F5F5F5" stroke-width="4" mask="url(#path-1-inside-1)"/>
<path d="M9 5.0625C9 4.75184 9.25184 4.5 9.5625 4.5H15.9375C16.2482 4.5 16.5 4.75184 16.5 5.0625C16.5 5.37316 16.2482 5.625 15.9375 5.625H9.5625C9.25184 5.625 9 5.37316 9 5.0625Z" fill="#F4F5F6"/>
<path d="M6.75 7.3125C6.75 7.00184 7.00184 6.75 7.3125 6.75H18.1875C18.4982 6.75 18.75 7.00184 18.75 7.3125C18.75 7.62316 18.4982 7.875 18.1875 7.875H7.3125C7.00184 7.875 6.75 7.62316 6.75 7.3125Z" fill="#F4F5F6"/>
</svg>
