
<svg width="24" height="24" viewBox="0 0 24 24" fill="none" xmlns="http://www.w3.org/2000/svg">
<path d="M12.4677 5.2186L12.468 5.21878L15.615 6.88847C15.9933 7.08917 16.4479 7.08226 16.8199 6.87017L16.9499 6.79606C17.2576 6.62062 17.2514 6.1749 16.9389 6.00813L13.1608 3.99193C13.1608 3.99191 13.1607 3.99189 13.1607 3.99187C12.497 3.63339 11.6926 3.62719 11.0232 3.97538C11.0232 3.97539 11.0231 3.9754 11.0231 3.97541L7.12124 5.98768C6.7938 6.15655 6.79695 6.62584 7.12662 6.7903L7.3895 6.92145C7.75232 7.10244 8.18038 7.09622 8.53779 6.90475L11.6963 5.21265C11.6964 5.2126 11.6965 5.21256 11.6966 5.21251C11.9381 5.08702 12.2283 5.08931 12.4677 5.2186ZM13.1764 20.0442L13.1774 20.0436L16.4963 18.1497C16.7614 17.9984 16.925 17.7166 16.925 17.4114V17.1877C16.925 16.8473 16.5617 16.6302 16.262 16.7913L12.5359 18.794C12.2598 18.9424 11.9283 18.9451 11.6499 18.8012L7.73163 16.7758C7.43211 16.621 7.075 16.8384 7.075 17.1756V17.4006C7.075 17.7119 7.24519 17.9984 7.51864 18.1472L11.0037 20.0441L11.0038 20.0442C11.6795 20.41 12.5006 20.41 13.1764 20.0442Z" fill="#292525" stroke="#292525" stroke-width="0.1" stroke-linecap="round"/>
<path fill-rule="evenodd" clip-rule="evenodd" d="M7.27999 11.5166C6.73148 11.2191 6.03847 11.623 6.03847 12.247C6.03847 13.1041 6.03847 13.9613 6.03847 14.8184C6.03847 14.969 5.87841 15.0655 5.74522 14.9954L4.71351 14.4516C4.5822 14.3824 4.50001 14.2462 4.50001 14.0978C4.50001 12.4028 4.50001 10.7079 4.5 9.01293C4.5 8.40217 5.15679 8.01668 5.69005 8.31445L11.5124 11.5658C11.8155 11.735 12.1845 11.735 12.4875 11.5658L18.31 8.31444C18.8432 8.01666 19.5 8.40216 19.5 9.01292C19.5 10.7079 19.5 12.4028 19.5 14.0978C19.5 14.2462 19.4178 14.3824 19.2865 14.4516L18.2548 14.9954C18.1216 15.0655 17.9615 14.969 17.9615 14.8184C17.9615 13.9379 17.9615 13.0574 17.9615 12.1769C17.9615 11.5728 17.3177 11.1867 16.7849 11.4711L12.4668 13.7757C12.1748 13.9316 11.825 13.9331 11.5321 13.7789C10.6334 13.306 8.63511 12.2517 7.27999 11.5166Z" fill="#292525" stroke="#292525" stroke-width="0.8" stroke-linecap="round"/>
</svg>
