
<svg width="24" height="24" viewBox="0 0 24 24" fill="none" xmlns="http://www.w3.org/2000/svg">
<mask id="path-1-inside-1" fill="white">
<rect x="3.75" y="9" width="16.5" height="10.5" rx="1"/>
</mask>
<rect x="3.75" y="9" width="16.5" height="10.5" rx="1" stroke="#211615" stroke-width="4" mask="url(#path-1-inside-1)"/>
<path d="M8.25 5.0625C8.25 4.75184 8.50184 4.5 8.8125 4.5H15.1875C15.4982 4.5 15.75 4.75184 15.75 5.0625C15.75 5.37316 15.4982 5.625 15.1875 5.625H8.8125C8.50184 5.625 8.25 5.37316 8.25 5.0625Z" fill="#211615"/>
<path d="M6 7.3125C6 7.00184 6.25184 6.75 6.5625 6.75H17.4375C17.7482 6.75 18 7.00184 18 7.3125C18 7.62316 17.7482 7.875 17.4375 7.875H6.5625C6.25184 7.875 6 7.62316 6 7.3125Z" fill="#211615"/>
</svg>
