
<svg width="24" height="24" viewBox="0 0 24 24" fill="none" xmlns="http://www.w3.org/2000/svg">
<path d="M20.8969 10.8437C21.0314 10.4729 20.8833 10.0755 20.6647 9.74712L16.9684 4.19578C16.783 3.9173 16.4706 3.75 16.136 3.75H7.86385C7.52931 3.75 7.21694 3.91728 7.03151 4.19572L3.33533 9.74613C3.11667 10.0745 2.96906 10.4727 3.10979 10.8413C3.36502 11.5097 4.03516 12 4.80039 12C5.77723 12 6.60078 11.25 6.60078 10.2497C6.60078 11.1994 7.42333 12 8.40116 12C9.37801 12 10.2016 11.25 10.2016 10.2497C10.2016 11.1994 11.0241 12 12.0019 12C12.9788 12 13.8023 11.25 13.8023 10.2497C13.8023 11.1994 14.6249 12 15.6027 12C16.5796 12 17.4031 11.25 17.4031 10.2497C17.4031 11.1994 18.2257 12 19.2035 12C19.9725 12 20.6471 11.5325 20.8969 10.8437Z" fill="#F5F5F5"/>
<path d="M6 15V19C6 19.2761 6.22386 19.5 6.5 19.5H17.5C17.7761 19.5 18 19.2761 18 19V15" stroke="#F5F5F5" stroke-width="2" stroke-linecap="round" stroke-linejoin="round"/>
</svg>
